<svg width="64" height="64" viewBox="0 0 64 64" fill="none" xmlns="http://www.w3.org/2000/svg">
  <circle cx="32" cy="32" r="32" fill="#28234A"/>
  <path fill-rule="evenodd" clip-rule="evenodd" d="M34.3425 16L27.7828 22.8348H43.9874L50.547 16H34.3425Z" fill="#8AC4EB"/>
  <path fill-rule="evenodd" clip-rule="evenodd" d="M20.7839 18.1909C20.6149 18.1909 20.4527 18.2579 20.333 18.3773L14.1877 24.505C14.0047 24.6875 13.9497 24.9623 14.0484 25.2011C14.1472 25.4399 14.3801 25.5957 14.6385 25.5957H35.951C36.1201 25.5957 36.2822 25.5287 36.4019 25.4093L42.5472 19.2816C42.7302 19.0991 42.7852 18.8243 42.6865 18.5855C42.5877 18.3467 42.3548 18.1909 42.0964 18.1909H20.7839ZM16.1832 24.3187L21.0478 19.468H40.5517L35.6871 24.3187H16.1832ZM38.6559 42.2038C38.6559 45.5543 37.1329 48.0001 31.076 48.0001C25.8152 48.0001 23.7039 46.5595 23.254 42.9745L28.0303 42.2709C28.3072 44.0466 28.9648 44.4151 31.1452 44.4151C33.1182 44.4151 33.7758 43.9461 33.7758 42.8739C33.7758 41.5671 33.014 41.2322 31.0414 40.8636C30.8843 40.8371 30.7245 40.8108 30.5626 40.7842C27.4443 40.2713 23.5673 39.6337 23.6001 35.3018C23.6001 31.784 25.5383 29.5728 31.0414 29.5728C36.0599 29.5728 37.9635 31.2813 38.3791 34.6653L33.4643 35.4023C33.2911 33.8277 32.772 33.2916 30.903 33.2916C29.38 33.2916 28.4455 33.6939 28.4455 34.7658C28.4455 36.2066 29.5185 36.4075 31.8721 36.8095C34.9525 37.3122 38.6559 38.0827 38.6559 42.2038Z" fill="white"/>
  <circle cx="32" cy="32" r="30" stroke="#EAF4F7" stroke-width="4"/>
</svg>
